<svg width="347" height="152" viewBox="0 0 347 152" fill="none" xmlns="http://www.w3.org/2000/svg">
<g clip-path="url(#clip0_17029_1043)">
<path d="M16.9131 130.832H5.60352V151.599H8.23815V143.616H16.1099C18.8731 143.616 21.0579 143.038 22.6001 141.898C24.1584 140.742 24.9456 139.152 24.9456 137.144C24.9456 135.345 24.2869 133.835 23.0017 132.631C21.7165 131.426 19.6602 130.832 16.9131 130.832ZM8.22208 133H16.7204C18.7285 133 20.1904 133.386 21.0418 134.157C21.8932 134.911 22.327 135.939 22.327 137.192C22.327 138.557 21.7968 139.617 20.7366 140.356C19.6602 141.095 18.0698 141.48 16.0135 141.48H8.22208V133.016V133Z" fill="#242132"/>
<path d="M60.2254 130.623H57.7354L46.5703 151.598H49.3495L52.1769 146.202H65.6714L68.5309 151.598H71.3744L60.2415 130.687L60.2093 130.623H60.2254ZM64.595 144.098H53.3175L58.9563 133.353L64.595 144.098Z" fill="#242132"/>
<path d="M114.944 140.95C116.197 139.922 116.824 138.525 116.824 136.822C116.824 135.12 116.165 133.562 114.864 132.47C113.579 131.394 111.523 130.832 108.776 130.832H97V151.598H99.6346V142.909H107.185L114.848 151.598H118.061L110.173 142.797C112.149 142.556 113.756 141.93 114.944 140.95ZM99.6346 133H108.599C110.527 133 111.972 133.337 112.872 134.012C113.756 134.67 114.205 135.618 114.205 136.854C114.205 138.22 113.643 139.183 112.503 139.826C111.346 140.468 109.788 140.789 107.86 140.789H99.6346V133.016V133Z" fill="#242132"/>
<path d="M140.807 133.032H150.51V151.599H153.144V133.032H162.831V130.832H140.807V133.032Z" fill="#242132"/>
<path d="M206.837 147.937L190.965 130.864L190.917 130.832H188.395V151.599H190.933V134.333L206.933 151.551L206.982 151.599H209.375V130.832H206.837V147.937Z" fill="#242132"/>
<path d="M237.42 151.599H255.878V149.431H240.055V142.171H252.617V140.003H240.055V133H255.878V130.832H237.42V151.599Z" fill="#242132"/>
<path d="M300.138 140.95C301.391 139.922 302.017 138.525 302.017 136.823C302.017 135.12 301.359 133.562 300.057 132.47C298.772 131.394 296.716 130.832 293.969 130.832H282.193V151.599H284.828V142.91H292.378L300.041 151.599H303.254L295.367 142.797C297.342 142.556 298.949 141.93 300.138 140.95ZM284.828 133H293.792C295.72 133 297.166 133.338 298.065 134.012C298.949 134.671 299.399 135.618 299.399 136.855C299.399 138.22 298.836 139.184 297.696 139.826C296.539 140.469 294.981 140.79 293.053 140.79H284.828V133.016V133Z" fill="#242132"/>
<path d="M344.495 141.769C342.888 140.966 340.607 140.356 337.731 139.97C334.936 139.585 332.96 139.087 331.9 138.509C330.84 137.931 330.342 137.176 330.342 136.212C330.342 135.248 330.92 134.413 332.044 133.69C333.185 132.952 334.84 132.582 336.928 132.582C338.647 132.582 340.302 132.855 341.844 133.369C343.386 133.899 344.607 134.445 345.475 134.991L345.587 135.056L346.728 133.016L346.615 132.952C345.507 132.309 344.125 131.731 342.519 131.201C340.912 130.671 339.033 130.414 336.928 130.414C335.482 130.414 334.181 130.575 333.04 130.896C331.9 131.217 330.92 131.651 330.133 132.181C329.346 132.711 328.719 133.337 328.301 134.06C327.884 134.767 327.675 135.521 327.675 136.276C327.675 138.155 328.494 139.521 330.117 140.356C331.707 141.175 334.085 141.785 337.185 142.203C339.788 142.556 341.651 143.006 342.744 143.568C343.82 144.13 344.334 144.901 344.334 145.945C344.334 147.117 343.724 148.033 342.471 148.723C341.217 149.43 339.547 149.783 337.506 149.783C335.643 149.783 333.876 149.526 332.253 149.013C330.631 148.499 329.217 147.824 328.076 147.005L327.964 146.925L326.711 148.932L326.807 148.996C328.189 149.928 329.795 150.667 331.579 151.181C333.362 151.711 335.338 151.968 337.442 151.968C338.84 151.968 340.141 151.823 341.298 151.518C342.454 151.213 343.467 150.795 344.286 150.265C345.121 149.735 345.78 149.093 346.246 148.354C346.712 147.615 346.953 146.78 346.953 145.897C346.953 143.969 346.117 142.572 344.463 141.753L344.495 141.769Z" fill="#242132"/>
<path d="M29.3022 108.7C28.0492 109.744 26.1535 110.258 23.6795 110.258H18.2014C15.2455 110.258 14.3941 109.792 13.9925 109.455C13.4462 108.973 13.1892 108.17 13.1892 106.982V73.0771H0V73.8641C1.83139 73.9444 3.08444 74.1853 3.82343 74.619C5.01222 75.3257 5.60662 76.8675 5.60662 79.1803V112.378H31.8565L33.463 103.063H32.7562C31.5674 105.938 30.4428 107.769 29.3022 108.7Z" fill="#242132"/>
<path d="M69.2563 107.094C67.6177 109.198 65.5614 110.274 63.1356 110.274H56.5491C53.1272 110.274 52.2597 109.905 51.8581 109.551C51.3119 109.086 51.071 108.074 51.071 106.259V92.8963H61.3203V90.7762H51.071V78.7145C51.071 77.0924 51.2477 76.209 51.6493 75.7754C51.9706 75.3899 52.6132 75.1972 53.6253 75.1972H60.8062C63.9389 75.1972 65.9791 75.5666 67.0394 76.3214C67.9551 76.9799 68.6619 78.3291 69.1921 80.433H70.0435L69.4973 73.0771H37.8496V73.7678C39.7453 73.8963 41.0144 74.1853 41.7373 74.6351C42.8779 75.3257 43.4402 76.8193 43.4402 79.2124V112.378H70.3969L71.7946 103.561H71.0877C70.5094 105.086 69.8989 106.243 69.2403 107.094H69.2563Z" fill="#242132"/>
<path d="M111.103 106.612L99.36 89.9089L112.662 73.0771H109.288L97.7696 87.6283L87.6006 73.0771H75.9375V73.8962C77.6564 74.0408 78.9256 74.4584 79.7931 75.149C80.7409 75.9039 82.2028 77.7187 84.2591 80.69L93.1429 93.5066L78.2669 112.394H81.6405L94.7655 95.7711L106.396 112.394H117.947V111.591C116.485 111.495 115.377 111.157 114.541 110.579C113.674 109.985 112.565 108.684 111.119 106.628L111.103 106.612Z" fill="#242132"/>
<path d="M119.119 73.8802C120.485 73.9605 121.529 74.105 122.252 74.3299C123.087 74.5708 123.714 75.0526 124.131 75.7593C124.533 76.466 124.726 77.5902 124.726 79.1803V112.378H132.324V73.0771H119.135V73.8802H119.119Z" fill="#242132"/>
<path d="M173.531 101.312L152.149 73.0771H140.229V73.8802C142.14 73.9926 143.458 74.2657 144.229 74.7475C145.289 75.3739 145.819 76.5463 145.819 78.2327V112.378H153.659V111.591C152.791 111.559 152.181 111.527 151.795 111.447C150.542 111.19 149.691 110.644 149.241 109.84C148.775 109.021 148.55 107.496 148.55 105.183V80.2242L173.001 112.394H176.246V73.0932H173.531V101.328V101.312Z" fill="#242132"/>
<path d="M227.752 73.0766L227.334 81.894H228.185C228.442 80.5931 228.667 79.6776 228.86 79.1316C229.406 77.6218 230.242 76.5939 231.334 76.0479C232.475 75.4697 234.724 75.1806 238.178 75.1806H240.861V112.361H248.459V75.1806H251.11C254.194 75.1806 256.235 75.4054 257.375 75.8551C258.676 76.337 259.656 77.2685 260.251 78.6015C260.556 79.2761 260.877 80.3522 261.231 81.878H261.954L261.536 73.0605H227.768L227.752 73.0766Z" fill="#242132"/>
<path d="M285.968 72.3213C280.827 72.3213 276.602 73.7989 273.421 76.722C269.453 80.3357 267.445 85.716 267.445 92.7186C267.445 98.9663 269.052 103.945 272.233 107.511C275.558 111.237 280.249 113.116 286.177 113.116C291.366 113.116 295.623 111.638 298.82 108.715C302.852 105.037 304.908 99.6408 304.908 92.6865C304.908 86.5191 303.27 81.5563 300.025 77.9587C296.683 74.2165 291.944 72.3213 285.968 72.3213ZM286.113 111.012C279.237 111.012 275.751 104.877 275.751 92.7668C275.751 86.6315 276.618 82.006 278.321 78.9865C280.04 75.9832 282.723 74.4574 286.289 74.4574C289.856 74.4574 292.282 76.0153 293.952 79.0829C295.703 82.2469 296.587 86.8243 296.587 92.6704C296.587 104.845 293.053 111.012 286.113 111.012Z" fill="#242132"/>
<path d="M344.267 73.0771V101.312L322.885 73.0771H310.965V73.8802C312.877 73.9926 314.194 74.2657 314.965 74.7475C316.025 75.3739 316.555 76.5463 316.555 78.2327V112.378H324.395V111.591C323.528 111.559 322.901 111.527 322.532 111.447C321.278 111.19 320.427 110.644 319.977 109.84C319.511 109.021 319.286 107.496 319.286 105.183V80.2242L343.737 112.394H346.982V73.0932H344.267V73.0771Z" fill="#242132"/>
<path d="M203.718 72.6758C197.839 73.4789 193.228 75.6471 190.047 79.1002C186.915 82.5051 185.324 86.9539 185.324 92.3343C185.324 98.5659 187.252 103.689 191.043 107.512C194.722 111.222 199.526 113.117 205.309 113.117C206.69 113.117 208.361 112.989 210.257 112.732C212.795 112.394 215.028 111.961 216.94 111.431C220.458 110.435 220.731 109.552 220.731 109.295V94.7595H207.542V95.5465C209.438 95.6268 210.723 95.8838 211.462 96.3335C212.57 96.9759 213.148 98.4214 213.148 100.622V108.427C213.148 108.925 212.907 109.648 211.751 110.13C210.723 110.547 209.341 110.74 207.494 110.74C202.465 110.74 198.77 108.7 196.489 104.685C194.706 101.489 193.79 97.3292 193.79 92.3022C193.79 87.9658 194.594 84.336 196.184 81.5093C197.726 78.7468 199.863 76.7874 202.53 75.7113C203.992 75.0849 209.277 73.6073 220.747 76.5304V74.6031C211.703 72.0334 205.18 72.467 203.734 72.6598L203.718 72.6758Z" fill="#242132"/>
<path d="M268.829 29.4233C244.025 33.8079 179.348 52.1173 179.155 28.0581C178.994 6.56867 156.793 -9.89371 86.8464 6.92201C39.3427 18.3413 20.6594 27.8333 0 38.5137L0.0963889 57.4816C26.1214 44.7614 61.6568 32.2821 95.3929 25.0547C163.042 10.5518 178.143 21.8426 179.251 41.3886C180.408 61.9947 214.979 60.5171 261.937 45.7732C313.794 29.4875 336.092 35.3658 347 38.4174C347 38.4174 339.755 16.8797 268.829 29.4233Z" fill="#A2224C"/>
</g>
<defs>
<clipPath id="clip0_17029_1043">
<rect width="347" height="152" fill="white"/>
</clipPath>
</defs>
</svg>
